<?xml version="1.0" encoding="UTF-8"?>
<svg width="800" height="500" xmlns="http://www.w3.org/2000/svg">
  <!-- Background -->
  <rect width="800" height="500" fill="#f8f9fa" rx="8" ry="8"/>
  
  <!-- Title -->
  <text x="400" y="40" text-anchor="middle" font-family="Arial" font-size="22" font-weight="bold" fill="#2c3e50">OASIS vs Chi-Squared Performance Comparison</text>
  <text x="400" y="65" text-anchor="middle" font-family="Arial" font-size="16" fill="#7f8c8d">Comparing statistical power, computational efficiency, and use cases</text>
  
  <!-- Statistical Power Section -->
  <g transform="translate(50, 100)">
    <text x="0" y="0" font-family="Arial" font-size="18" font-weight="bold" fill="#2c3e50">Statistical Power</text>
    
    <!-- Axes -->
    <line x1="50" y1="200" x2="550" y2="200" stroke="#bdc3c7" stroke-width="2"/>
    <line x1="50" y1="50" x2="50" y2="200" stroke="#bdc3c7" stroke-width="2"/>
    
    <!-- X-axis labels -->
    <text x="50" y="220" text-anchor="middle" font-family="Arial" font-size="12" fill="#7f8c8d">0.0</text>
    <text x="150" y="220" text-anchor="middle" font-family="Arial" font-size="12" fill="#7f8c8d">0.2</text>
    <text x="250" y="220" text-anchor="middle" font-family="Arial" font-size="12" fill="#7f8c8d">0.4</text>
    <text x="350" y="220" text-anchor="middle" font-family="Arial" font-size="12" fill="#7f8c8d">0.6</text>
    <text x="450" y="220" text-anchor="middle" font-family="Arial" font-size="12" fill="#7f8c8d">0.8</text>
    <text x="300" y="240" text-anchor="middle" font-family="Arial" font-size="14" fill="#7f8c8d">Effect Size</text>
    
    <!-- Y-axis labels -->
    <text x="40" y="200" text-anchor="end" font-family="Arial" font-size="12" fill="#7f8c8d">0.0</text>
    <text x="40" y="155" text-anchor="end" font-family="Arial" font-size="12" fill="#7f8c8d">0.25</text>
    <text x="40" y="110" text-anchor="end" font-family="Arial" font-size="12" fill="#7f8c8d">0.5</text>
    <text x="40" y="65" text-anchor="end" font-family="Arial" font-size="12" fill="#7f8c8d">0.75</text>
    <text x="40" y="20" text-anchor="end" font-family="Arial" font-size="12" fill="#7f8c8d">1.0</text>
    <text x="15" y="125" text-anchor="middle" font-family="Arial" font-size="14" fill="#7f8c8d" transform="rotate(-90, 15, 125)">Statistical Power</text>
    
    <!-- Grid lines -->
    <line x1="50" y1="155" x2="550" y2="155" stroke="#ecf0f1" stroke-width="1"/>
    <line x1="50" y1="110" x2="550" y2="110" stroke="#ecf0f1" stroke-width="1"/>
    <line x1="50" y1="65" x2="550" y2="65" stroke="#ecf0f1" stroke-width="1"/>
    <line x1="50" y1="20" x2="550" y2="20" stroke="#ecf0f1" stroke-width="1"/>
    
    <line x1="150" y1="20" x2="150" y2="200" stroke="#ecf0f1" stroke-width="1"/>
    <line x1="250" y1="20" x2="250" y2="200" stroke="#ecf0f1" stroke-width="1"/>
    <line x1="350" y1="20" x2="350" y2="200" stroke="#ecf0f1" stroke-width="1"/>
    <line x1="450" y1="20" x2="450" y2="200" stroke="#ecf0f1" stroke-width="1"/>
    
    <!-- OASIS Curve -->
    <path d="M50,178 C100,155 150,120 200,95 C250,70 300,45 350,30 C400,20 450,15 500,12" fill="none" stroke="#3498db" stroke-width="3"/>
    
    <!-- Chi-squared Curve -->
    <path d="M50,185 C100,165 150,140 200,115 C250,90 300,70 350,50 C400,35 450,25 500,22" fill="none" stroke="#e74c3c" stroke-width="3"/>
    
    <!-- Data Points -->
    <circle cx="50" cy="178" r="4" fill="#3498db"/>
    <circle cx="150" cy="155" r="4" fill="#3498db"/>
    <circle cx="250" cy="95" r="4" fill="#3498db"/>
    <circle cx="350" cy="45" r="4" fill="#3498db"/>
    <circle cx="450" cy="15" r="4" fill="#3498db"/>
    
    <circle cx="50" cy="185" r="4" fill="#e74c3c"/>
    <circle cx="150" cy="165" r="4" fill="#e74c3c"/>
    <circle cx="250" cy="115" r="4" fill="#e74c3c"/>
    <circle cx="350" cy="65" r="4" fill="#e74c3c"/>
    <circle cx="450" cy="25" r="4" fill="#e74c3c"/>
  </g>
  
  <!-- Test Case Comparison Section -->
  <g transform="translate(50, 390)">
    <text x="650" y="-40" font-family="Arial" font-size="18" font-weight="bold" fill="#2c3e50">Test Case Comparison</text>
    
    <!-- Table Headers -->
    <rect x="200" y="-30" width="150" height="30" fill="#ecf0f1"/>
    <text x="275" y="-10" text-anchor="middle" font-family="Arial" font-size="14" font-weight="bold" fill="#2c3e50">Test Case</text>
    
    <rect x="350" y="-30" width="150" height="30" fill="#ecf0f1"/>
    <text x="425" y="-10" text-anchor="middle" font-family="Arial" font-size="14" font-weight="bold" fill="#2c3e50">OASIS</text>
    
    <rect x="500" y="-30" width="150" height="30" fill="#ecf0f1"/>
    <text x="575" y="-10" text-anchor="middle" font-family="Arial" font-size="14" font-weight="bold" fill="#2c3e50">Chi-Squared</text>
    
    <!-- Row 1 -->
    <rect x="200" y="0" width="150" height="25" fill="white"/>
    <text x="275" y="18" text-anchor="middle" font-family="Arial" font-size="12" fill="#2c3e50">Sparse data</text>
    
    <rect x="350" y="0" width="150" height="25" fill="white"/>
    <text x="425" y="18" text-anchor="middle" font-family="Arial" font-size="12" font-weight="bold" fill="#27ae60">Excellent</text>
    
    <rect x="500" y="0" width="150" height="25" fill="white"/>
    <text x="575" y="18" text-anchor="middle" font-family="Arial" font-size="12" fill="#e74c3c">Poor</text>
    
    <!-- Row 2 -->
    <rect x="200" y="25" width="150" height="25" fill="white"/>
    <text x="275" y="43" text-anchor="middle" font-family="Arial" font-size="12" fill="#2c3e50">Small sample size</text>
    
    <rect x="350" y="25" width="150" height="25" fill="white"/>
    <text x="425" y="43" text-anchor="middle" font-family="Arial" font-size="12" font-weight="bold" fill="#27ae60">Good</text>
    
    <rect x="500" y="25" width="150" height="25" fill="white"/>
    <text x="575" y="43" text-anchor="middle" font-family="Arial" font-size="12" fill="#e74c3c">Poor</text>
    
    <!-- Row 3 -->
    <rect x="200" y="50" width="150" height="25" fill="white"/>
    <text x="275" y="68" text-anchor="middle" font-family="Arial" font-size="12" fill="#2c3e50">Large tables</text>
    
    <rect x="350" y="50" width="150" height="25" fill="white"/>
    <text x="425" y="68" text-anchor="middle" font-family="Arial" font-size="12" font-weight="bold" fill="#27ae60">Good</text>
    
    <rect x="500" y="50" width="150" height="25" fill="white"/>
    <text x="575" y="68" text-anchor="middle" font-family="Arial" font-size="12" fill="#f39c12">Moderate</text>
  </g>
  
  <!-- Legend -->
  <g transform="translate(400, 360)">
    <rect x="0" y="0" width="12" height="12" fill="#3498db"/>
    <text x="20" y="10" font-family="Arial" font-size="12" fill="#2c3e50">OASIS</text>
    
    <rect x="80" y="0" width="12" height="12" fill="#e74c3c"/>
    <text x="100" y="10" font-family="Arial" font-size="12" fill="#2c3e50">Chi-Squared</text>
  </g>
</svg>